<svg xmlns="http://www.w3.org/2000/svg" width="83" height="83" viewBox="0 0 83 83">
  <g id="Group_10963" data-name="Group 10963" transform="translate(-919 -220)">
    <circle id="Ellipse_2" data-name="Ellipse 2" cx="41.5" cy="41.5" r="41.5" transform="translate(919 220)"/>
    <g id="Group_10905" data-name="Group 10905" transform="translate(942.765 244.765)">
      <g id="Group_1" data-name="Group 1" transform="translate(0)">
        <path id="Path_1" data-name="Path 1" d="M1327.954,845.306h-12.376a33.747,33.747,0,0,1,8.815,10.941,33.241,33.241,0,0,1,2.634,7.182,33.629,33.629,0,0,1,.927,7.846v.467h-7.464v-.467a25.863,25.863,0,0,0-5.78-16.334l0,.022c-.012.063-.023.126-.036.188v.007l-.039.2,0,.013c-.01.051-.021.1-.032.153s-.026.123-.04.184c-.01.045-.02.091-.031.136s-.021.091-.032.136-.018.078-.028.117l-.006.026c-.021.088-.043.175-.066.262s-.047.18-.072.27-.046.169-.071.253a.388.388,0,0,1-.012.04c-.016.057-.032.114-.05.17-.01.033-.02.066-.03.1a.156.156,0,0,1,0,.016c-.05.163-.1.324-.155.486l0,.009c-.023.07-.047.14-.071.209l-.026.074q-.042.119-.084.237c-.1.263-.2.527-.3.783s-.224.529-.344.789a20.536,20.536,0,0,1-18.644,11.927h-.467v-7.464h.467a13.067,13.067,0,0,0,12.9-10.963l0-.011c.038-.233.07-.474.1-.718,0-.007,0-.015,0-.022a13.266,13.266,0,0,0,0-2.7c-.026-.251-.059-.5-.1-.74q-.035-.221-.078-.438l-.241-.136-.235-.129-.194-.1-.065-.035-.223-.116a25.865,25.865,0,0,0-3.769-1.575q-.936-.307-1.892-.541a26.092,26.092,0,0,0-6.2-.745h-.466v-7.464h33.9Z" transform="translate(-1294.054 -837.842)" fill="#fff"/>
      </g>
      <g id="Group_2" data-name="Group 2" transform="translate(13.286 10.844)">
        <path id="Path_2" data-name="Path 2" d="M1586.234,1076.557l0,.022c-.012.063-.023.126-.035.188v.008l-.039.2,0,.013c-.01.051-.021.1-.032.153s-.026.123-.04.184c-.01.045-.02.091-.031.136s-.021.09-.032.136-.018.078-.028.117l-.006.026c-.021.088-.044.175-.066.262s-.047.18-.072.27-.047.169-.072.253a.4.4,0,0,1-.012.04c-.016.057-.033.114-.05.17-.01.033-.02.066-.03.1a.124.124,0,0,1,0,.016c-.049.162-.1.325-.155.486l0,.009c-.023.07-.047.14-.071.209l-.026.074c-.027.079-.056.158-.084.237-.1.263-.2.527-.3.783l-.333.807-.012-.018-.474-.707a22.043,22.043,0,0,0-3.931-4.426c-.371-.319-.762-.632-1.16-.93l-.226-.169.043-.268,0-.011c.038-.233.07-.474.1-.718,0-.007,0-.015,0-.023a13.218,13.218,0,0,0,0-2.7c-.026-.251-.059-.5-.1-.74q-.035-.221-.078-.438l.181.1c.1.056.194.113.291.171a25.925,25.925,0,0,1,2.616,1.787q.321.249.633.508.187.155.371.313c.508.435,1.005.9,1.479,1.373.394.4.779.807,1.145,1.225Q1585.916,1076.164,1586.234,1076.557Z" transform="translate(-1578.864 -1070.302)" fill="#afafaf"/>
      </g>
    </g>
  </g>
</svg>
